<svg width="366" height="105" viewBox="0 0 366 105" fill="none" xmlns="http://www.w3.org/2000/svg">
<path d="M128.259 67.5984C125.827 67.5984 123.555 67.1504 121.443 66.2544C119.331 65.3584 117.475 64.1264 115.875 62.5584C114.275 60.9584 113.011 59.1184 112.083 57.0384C111.187 54.9584 110.739 52.7184 110.739 50.3184C110.739 47.9184 111.187 45.6784 112.083 43.5984C113.011 41.5184 114.275 39.6944 115.875 38.1264C117.475 36.5264 119.331 35.2784 121.443 34.3824C123.555 33.4864 125.827 33.0384 128.259 33.0384C129.763 33.0384 131.219 33.1984 132.627 33.5184C134.035 33.8384 135.331 34.3184 136.515 34.9584C136.995 35.2144 137.347 35.5664 137.571 36.0144C137.827 36.4304 137.955 36.8624 137.955 37.3104C137.955 38.0784 137.699 38.7664 137.187 39.3744C136.675 39.9824 136.019 40.2864 135.219 40.2864C134.963 40.2864 134.691 40.2544 134.403 40.1904C134.147 40.1264 133.891 40.0304 133.635 39.9024C132.835 39.5504 131.987 39.2784 131.091 39.0864C130.195 38.8944 129.251 38.7984 128.259 38.7984C126.179 38.7984 124.275 39.3264 122.547 40.3824C120.851 41.4064 119.491 42.7984 118.467 44.5584C117.475 46.2864 116.979 48.2064 116.979 50.3184C116.979 52.3984 117.475 54.3184 118.467 56.0784C119.491 57.8384 120.851 59.2464 122.547 60.3024C124.275 61.3264 126.179 61.8384 128.259 61.8384C129.219 61.8384 130.275 61.7424 131.427 61.5504C132.579 61.3584 133.523 61.1024 134.259 60.7824L133.827 62.2224V54.0144L134.643 54.7344H129.315C128.483 54.7344 127.779 54.4624 127.203 53.9184C126.659 53.3744 126.387 52.6864 126.387 51.8544C126.387 51.0224 126.659 50.3344 127.203 49.7904C127.779 49.2464 128.483 48.9744 129.315 48.9744H137.187C138.019 48.9744 138.707 49.2624 139.251 49.8384C139.795 50.3824 140.067 51.0704 140.067 51.9024V62.0784C140.067 62.7184 139.907 63.2464 139.587 63.6624C139.299 64.0784 138.963 64.4144 138.579 64.6704C137.107 65.5664 135.491 66.2864 133.731 66.8304C132.003 67.3424 130.179 67.5984 128.259 67.5984ZM150.785 64.1904C150.785 65.0224 150.513 65.7264 149.969 66.3024C149.425 66.8464 148.737 67.1184 147.905 67.1184C147.073 67.1184 146.385 66.8464 145.841 66.3024C145.297 65.7264 145.025 65.0224 145.025 64.1904V44.3664C145.025 43.5344 145.297 42.8464 145.841 42.3024C146.385 41.7264 147.073 41.4384 147.905 41.4384C148.737 41.4384 149.425 41.7264 149.969 42.3024C150.513 42.8464 150.785 43.5344 150.785 44.3664V64.1904ZM147.857 38.3184C146.769 38.3184 146.001 38.1424 145.553 37.7904C145.105 37.4384 144.881 36.8144 144.881 35.9184V35.0064C144.881 34.0784 145.121 33.4544 145.601 33.1344C146.113 32.7824 146.881 32.6064 147.905 32.6064C149.025 32.6064 149.809 32.7824 150.257 33.1344C150.705 33.4864 150.929 34.1104 150.929 35.0064V35.9184C150.929 36.8464 150.689 37.4864 150.209 37.8384C149.729 38.1584 148.945 38.3184 147.857 38.3184ZM157.857 41.4384C158.465 41.4384 159.025 41.5984 159.537 41.9184C160.049 42.2064 160.433 42.6544 160.689 43.2624L167.745 59.3904L166.689 59.8704L173.889 43.3104C174.433 42.0304 175.281 41.4224 176.433 41.4864C177.233 41.4864 177.873 41.7424 178.353 42.2544C178.865 42.7344 179.121 43.3424 179.121 44.0784C179.121 44.3024 179.073 44.5424 178.977 44.7984C178.913 45.0544 178.833 45.2944 178.737 45.5184L169.761 65.2944C169.249 66.4464 168.433 67.0544 167.313 67.1184C166.705 67.2144 166.113 67.1024 165.537 66.7824C164.993 66.4624 164.577 65.9664 164.289 65.2944L155.361 45.5184C155.297 45.3584 155.217 45.1504 155.121 44.8944C155.057 44.6384 155.025 44.3344 155.025 43.9824C155.025 43.4064 155.281 42.8464 155.793 42.3024C156.305 41.7264 156.993 41.4384 157.857 41.4384ZM195.52 67.5984C192.8 67.5984 190.432 67.0384 188.416 65.9184C186.432 64.7664 184.896 63.2144 183.808 61.2624C182.752 59.3104 182.224 57.1024 182.224 54.6384C182.224 51.7584 182.8 49.3104 183.952 47.2944C185.136 45.2464 186.672 43.6784 188.56 42.5904C190.448 41.5024 192.448 40.9584 194.56 40.9584C196.192 40.9584 197.728 41.2944 199.168 41.9664C200.64 42.6384 201.936 43.5664 203.056 44.7504C204.176 45.9024 205.056 47.2464 205.696 48.7824C206.368 50.3184 206.704 51.9504 206.704 53.6784C206.672 54.4464 206.368 55.0704 205.792 55.5504C205.216 56.0304 204.544 56.2704 203.776 56.2704H185.44L184 51.4704H201.616L200.56 52.4304V51.1344C200.496 50.2064 200.16 49.3744 199.552 48.6384C198.976 47.9024 198.24 47.3264 197.344 46.9104C196.48 46.4624 195.552 46.2384 194.56 46.2384C193.6 46.2384 192.704 46.3664 191.872 46.6224C191.04 46.8784 190.32 47.3104 189.712 47.9184C189.104 48.5264 188.624 49.3424 188.272 50.3664C187.92 51.3904 187.744 52.6864 187.744 54.2544C187.744 55.9824 188.096 57.4544 188.8 58.6704C189.536 59.8544 190.464 60.7664 191.584 61.4064C192.736 62.0144 193.952 62.3184 195.232 62.3184C196.416 62.3184 197.36 62.2224 198.064 62.0304C198.768 61.8384 199.328 61.6144 199.744 61.3584C200.192 61.0704 200.592 60.8304 200.944 60.6384C201.52 60.3504 202.064 60.2064 202.576 60.2064C203.28 60.2064 203.856 60.4464 204.304 60.9264C204.784 61.4064 205.024 61.9664 205.024 62.6064C205.024 63.4704 204.576 64.2544 203.68 64.9584C202.848 65.6624 201.68 66.2864 200.176 66.8304C198.672 67.3424 197.12 67.5984 195.52 67.5984ZM222.008 67.5984C219.736 67.5984 217.688 67.1024 215.864 66.1104C214.072 65.1184 212.648 63.8224 211.592 62.2224C210.568 60.6224 210.056 58.9104 210.056 57.0864C210.056 55.4864 210.328 54.0304 210.872 52.7184C211.448 51.3744 212.296 50.1904 213.416 49.1664C214.568 48.1424 216.024 47.2784 217.784 46.5744L221.528 50.4624C219.288 50.9424 217.784 51.6784 217.016 52.6704C216.28 53.6304 215.912 54.8144 215.912 56.2224C215.912 57.1824 216.152 58.1264 216.632 59.0544C217.112 59.9504 217.896 60.7024 218.984 61.3104C220.072 61.8864 221.528 62.1744 223.352 62.1744C224.856 62.1744 226.2 61.8384 227.384 61.1664C228.6 60.4624 229.64 59.5504 230.504 58.4304C231.4 57.2784 232.12 56.0144 232.664 54.6384C233.24 53.2304 233.624 51.8064 233.816 50.3664C233.88 49.8544 234.072 49.4544 234.392 49.1664C234.744 48.8784 235.32 48.7344 236.12 48.7344C236.952 48.7344 237.608 49.0704 238.088 49.7424C238.568 50.4144 238.744 51.1984 238.616 52.0944C238.328 54.0144 237.768 55.9024 236.936 57.7584C236.136 59.5824 235.048 61.2464 233.672 62.7504C232.328 64.2224 230.68 65.4064 228.728 66.3024C226.808 67.1664 224.568 67.5984 222.008 67.5984ZM239.096 67.2144C238.712 67.2144 238.376 67.1664 238.088 67.0704C237.832 66.9744 237.624 66.8624 237.464 66.7344C235.16 64.7504 233.048 62.9264 231.128 61.2624C229.24 59.5664 227.496 57.9504 225.896 56.4144C224.296 54.8784 222.792 53.3104 221.384 51.7104C220.264 50.4304 219.24 49.2784 218.312 48.2544C217.384 47.2304 216.632 46.2384 216.056 45.2784C215.512 44.2864 215.24 43.1984 215.24 42.0144C215.24 40.4464 215.656 38.9904 216.488 37.6464C217.352 36.2704 218.568 35.1664 220.136 34.3344C221.704 33.4704 223.56 33.0384 225.704 33.0384C227.912 33.0384 229.896 33.4064 231.656 34.1424C233.448 34.8784 234.648 35.8544 235.256 37.0704C235.288 37.1024 235.368 37.3104 235.496 37.6944C235.624 38.0464 235.688 38.4624 235.688 38.9424C235.688 39.5504 235.464 40.0784 235.016 40.5264C234.568 40.9744 233.96 41.1984 233.192 41.1984C232.68 41.1984 232.28 41.1024 231.992 40.9104C231.704 40.7184 231.48 40.5264 231.32 40.3344C230.616 39.4064 229.8 38.7664 228.872 38.4144C227.976 38.0304 226.92 37.8384 225.704 37.8384C224.264 37.8384 223.16 38.2224 222.392 38.9904C221.656 39.7584 221.288 40.6704 221.288 41.7264C221.288 42.7184 221.64 43.7104 222.344 44.7024C223.048 45.6624 223.848 46.5744 224.744 47.4384C225.672 48.3024 226.44 49.0704 227.048 49.7424C228.04 50.7984 229.144 51.9344 230.36 53.1504C231.608 54.3344 232.856 55.5024 234.104 56.6544C235.352 57.7744 236.504 58.8304 237.56 59.8224C238.648 60.7824 239.528 61.5824 240.2 62.2224C240.616 62.6064 240.92 62.9904 241.112 63.3744C241.336 63.7584 241.448 64.2224 241.448 64.7664C241.448 65.1824 241.256 65.6944 240.872 66.3024C240.52 66.9104 239.928 67.2144 239.096 67.2144ZM262.087 67.5984C259.655 67.5984 257.383 67.1504 255.271 66.2544C253.159 65.3584 251.303 64.1264 249.703 62.5584C248.103 60.9584 246.839 59.1184 245.911 57.0384C245.015 54.9584 244.567 52.7184 244.567 50.3184C244.567 47.9184 245.015 45.6784 245.911 43.5984C246.839 41.5184 248.103 39.6944 249.703 38.1264C251.303 36.5264 253.159 35.2784 255.271 34.3824C257.383 33.4864 259.655 33.0384 262.087 33.0384C263.591 33.0384 265.047 33.1984 266.455 33.5184C267.863 33.8384 269.159 34.3184 270.343 34.9584C270.823 35.2144 271.175 35.5664 271.399 36.0144C271.655 36.4304 271.783 36.8624 271.783 37.3104C271.783 38.0784 271.527 38.7664 271.015 39.3744C270.503 39.9824 269.847 40.2864 269.047 40.2864C268.791 40.2864 268.519 40.2544 268.231 40.1904C267.975 40.1264 267.719 40.0304 267.463 39.9024C266.663 39.5504 265.815 39.2784 264.919 39.0864C264.023 38.8944 263.079 38.7984 262.087 38.7984C260.007 38.7984 258.103 39.3264 256.375 40.3824C254.679 41.4064 253.319 42.7984 252.295 44.5584C251.303 46.2864 250.807 48.2064 250.807 50.3184C250.807 52.3984 251.303 54.3184 252.295 56.0784C253.319 57.8384 254.679 59.2464 256.375 60.3024C258.103 61.3264 260.007 61.8384 262.087 61.8384C263.047 61.8384 264.103 61.7424 265.255 61.5504C266.407 61.3584 267.351 61.1024 268.087 60.7824L267.655 62.2224V54.0144L268.471 54.7344H263.143C262.311 54.7344 261.607 54.4624 261.031 53.9184C260.487 53.3744 260.215 52.6864 260.215 51.8544C260.215 51.0224 260.487 50.3344 261.031 49.7904C261.607 49.2464 262.311 48.9744 263.143 48.9744H271.015C271.847 48.9744 272.535 49.2624 273.079 49.8384C273.623 50.3824 273.895 51.0704 273.895 51.9024V62.0784C273.895 62.7184 273.735 63.2464 273.415 63.6624C273.127 64.0784 272.791 64.4144 272.407 64.6704C270.935 65.5664 269.319 66.2864 267.559 66.8304C265.831 67.3424 264.007 67.5984 262.087 67.5984ZM291.285 67.5984C288.565 67.5984 286.197 67.0384 284.181 65.9184C282.197 64.7664 280.661 63.2144 279.573 61.2624C278.517 59.3104 277.989 57.1024 277.989 54.6384C277.989 51.7584 278.565 49.3104 279.717 47.2944C280.901 45.2464 282.437 43.6784 284.325 42.5904C286.213 41.5024 288.213 40.9584 290.325 40.9584C291.957 40.9584 293.493 41.2944 294.933 41.9664C296.405 42.6384 297.701 43.5664 298.821 44.7504C299.941 45.9024 300.821 47.2464 301.461 48.7824C302.133 50.3184 302.469 51.9504 302.469 53.6784C302.437 54.4464 302.133 55.0704 301.557 55.5504C300.981 56.0304 300.309 56.2704 299.541 56.2704H281.205L279.765 51.4704H297.381L296.325 52.4304V51.1344C296.261 50.2064 295.925 49.3744 295.317 48.6384C294.741 47.9024 294.005 47.3264 293.109 46.9104C292.245 46.4624 291.317 46.2384 290.325 46.2384C289.365 46.2384 288.469 46.3664 287.637 46.6224C286.805 46.8784 286.085 47.3104 285.477 47.9184C284.869 48.5264 284.389 49.3424 284.037 50.3664C283.685 51.3904 283.509 52.6864 283.509 54.2544C283.509 55.9824 283.861 57.4544 284.565 58.6704C285.301 59.8544 286.229 60.7664 287.349 61.4064C288.501 62.0144 289.717 62.3184 290.997 62.3184C292.181 62.3184 293.125 62.2224 293.829 62.0304C294.533 61.8384 295.093 61.6144 295.509 61.3584C295.957 61.0704 296.357 60.8304 296.709 60.6384C297.285 60.3504 297.829 60.2064 298.341 60.2064C299.045 60.2064 299.621 60.4464 300.069 60.9264C300.549 61.4064 300.789 61.9664 300.789 62.6064C300.789 63.4704 300.341 64.2544 299.445 64.9584C298.613 65.6624 297.445 66.2864 295.941 66.8304C294.437 67.3424 292.885 67.5984 291.285 67.5984ZM307.79 41.9184H319.166C319.934 41.9184 320.574 42.1744 321.086 42.6864C321.598 43.1984 321.854 43.8384 321.854 44.6064C321.854 45.3424 321.598 45.9664 321.086 46.4784C320.574 46.9584 319.934 47.1984 319.166 47.1984H307.79C307.022 47.1984 306.382 46.9424 305.87 46.4304C305.358 45.9184 305.102 45.2784 305.102 44.5104C305.102 43.7744 305.358 43.1664 305.87 42.6864C306.382 42.1744 307.022 41.9184 307.79 41.9184ZM312.926 35.9184C313.758 35.9184 314.43 36.2064 314.942 36.7824C315.486 37.3264 315.758 38.0144 315.758 38.8464V60.2064C315.758 60.6544 315.838 61.0224 315.998 61.3104C316.19 61.5984 316.43 61.8064 316.718 61.9344C317.038 62.0624 317.374 62.1264 317.726 62.1264C318.11 62.1264 318.462 62.0624 318.782 61.9344C319.102 61.7744 319.47 61.6944 319.886 61.6944C320.334 61.6944 320.734 61.9024 321.086 62.3184C321.47 62.7344 321.662 63.3104 321.662 64.0464C321.662 64.9424 321.166 65.6784 320.174 66.2544C319.214 66.8304 318.174 67.1184 317.054 67.1184C316.382 67.1184 315.63 67.0704 314.798 66.9744C313.998 66.8464 313.23 66.5744 312.494 66.1584C311.79 65.7104 311.198 65.0384 310.718 64.1424C310.238 63.2464 309.998 62.0144 309.998 60.4464V38.8464C309.998 38.0144 310.27 37.3264 310.814 36.7824C311.39 36.2064 312.094 35.9184 312.926 35.9184Z" fill="#F95321"/>
<rect width="104.82" height="104.82" fill="white"/>
<path fill-rule="evenodd" clip-rule="evenodd" d="M29.5291 23.6519C17.9347 24.5465 8.25141 32.9911 5.69301 44.4382C3.95588 52.2106 5.54365 60.776 9.85568 66.8943C11.3847 69.0641 13.8758 71.7412 15.7091 73.1859C25.5488 80.9386 39.8607 80.827 49.7486 72.9204C54.0213 69.5038 57.6586 63.8176 59.0705 58.347C59.2377 57.6998 59.4591 57.0549 59.5626 56.9142L59.7505 56.6581L62.8108 56.5934C66.1922 56.5219 66.5342 56.4702 67.8416 55.8319C71.9301 53.8358 72.1803 47.8456 68.263 45.7576C66.8107 44.9835 67.0261 45.0063 60.7269 44.9634C54.1953 44.9191 54.8177 45.064 55.4338 43.7304C58.1182 37.9205 64.3796 34.0613 71.1424 34.0485C84.5483 34.0233 91.951 49.6881 84.0418 61.3449C79.4266 68.1472 71.1487 70.2651 63.7594 66.5337C62.2825 65.7882 62.4984 65.762 61.8275 66.7667C60.4342 68.8529 58.1415 71.8334 56.5174 73.6694C55.5166 74.8006 55.515 74.6172 56.5302 75.1885C65.8196 80.4177 76.8123 80.5146 84.8177 75.4379C96.5133 68.0206 101.319 54.208 96.7834 41.0478C95.5625 37.5059 92.1834 32.6426 89.1303 30.0331C83.0014 24.7952 74.5558 22.6108 65.666 23.9642C59.0019 24.9786 53.596 28.1927 48.8123 33.9848C45.8414 37.5814 44.9059 39.3437 43.325 44.3234L43.146 44.8863L40.6382 44.9484C38.6584 44.9974 38.0116 45.0485 37.5672 45.1903C32.1994 46.9036 32.1776 54.3943 37.535 56.2706L38.335 56.551L43.0949 56.6044C48.626 56.6668 48.1207 56.5143 47.5964 57.9634C46.0752 62.168 42.4592 65.5815 37.7208 67.2861C27.2773 71.0434 16.3933 62.8286 16.3799 51.1789C16.365 38.2415 28.6478 29.9953 39.481 35.67L40.1149 36.0023L40.4115 35.6844C42.2173 33.7484 47.0052 27.5991 46.8155 27.4595C46.4803 27.2126 43.674 25.8203 42.8342 25.4841C38.8565 23.8924 34.3872 23.2772 29.5291 23.6519Z" fill="#F95321"/>
</svg>
